<?xml version="1.0" encoding="UTF-8" standalone="no"?>

<svg
   height="512"
   stroke-miterlimit="10"
   style="clip-rule:evenodd;fill-rule:nonzero;stroke-linecap:round;stroke-linejoin:round"
   version="1.1"
   viewBox="0 0 14.222222 14.222222"
   width="512"
   xml:space="preserve"
   id="svg5"
   sodipodi:docname="icon.svg"
   inkscape:version="1.3.2 (091e20ef0f, 2023-11-25)"
   inkscape:export-filename="icon.png"
   inkscape:export-xdpi="96"
   inkscape:export-ydpi="96"
   xmlns:inkscape="http://www.inkscape.org/namespaces/inkscape"
   xmlns:sodipodi="http://sodipodi.sourceforge.net/DTD/sodipodi-0.dtd"
   xmlns="http://www.w3.org/2000/svg"
   xmlns:svg="http://www.w3.org/2000/svg"><sodipodi:namedview
   id="namedview5"
   pagecolor="#ffffff"
   bordercolor="#000000"
   borderopacity="0.25"
   inkscape:showpageshadow="2"
   inkscape:pageopacity="0.0"
   inkscape:pagecheckerboard="0"
   inkscape:deskcolor="#d1d1d1"
   inkscape:zoom="1"
   inkscape:cx="123"
   inkscape:cy="347.5"
   inkscape:window-width="1536"
   inkscape:window-height="783"
   inkscape:window-x="0"
   inkscape:window-y="0"
   inkscape:window-maximized="1"
   inkscape:current-layer="Layer-1-copy" />
<defs
   id="defs1" />


<g
   id="layer1"
   transform="translate(-0.04414409,-0.04414409)"
   style="clip-rule:evenodd;fill-rule:nonzero;stroke-linecap:round;stroke-linejoin:round"
   inkscape:label="Background">
<path
   d="m 3.44116,1.33221 h 7.42824 c 1.1647,0 2.1089,0.94421 2.1089,2.10895 v 7.42824 c 0,1.1647 -0.9442,2.1089 -2.1089,2.1089 H 3.44116 c -1.16474,0 -2.10895,-0.9442 -2.10895,-2.1089 V 3.44116 c 0,-1.16474 0.94421,-2.10895 2.10895,-2.10895 z"
   fill="#41e7c6"
   fill-rule="nonzero"
   opacity="0.999067"
   stroke="none"
   id="path1" />
</g><g
   id="Layer-1-copy"
   transform="translate(-0.04414409,-0.04414409)"
   style="clip-rule:evenodd;fill-rule:nonzero;stroke-linecap:round;stroke-linejoin:round"
   inkscape:label="Shadow">
<path
   d="m 6.60743,8.6464 4.84367,3.1398 v 0 L 9.96119,6.77544 v 0 z"
   fill="#000000"
   fill-rule="nonzero"
   opacity="1"
   stroke="none"
   id="path2" />
<path
   d="m 2.39348,6.70866 c 0,-1.96804 1.97807,-3.56345 4.41815,-3.56345 2.44008,0 4.41817,1.59541 4.41817,3.56345 0,1.96804 -1.97809,3.56344 -4.41817,3.56344 -2.44008,0 -4.41815,-1.5954 -4.41815,-3.56344 z"
   fill="#000000"
   fill-rule="nonzero"
   opacity="1"
   stroke="none"
   id="path3" />
</g><g
   id="Layer-1"
   transform="translate(-0.04414409,-0.04414409)"
   style="clip-rule:evenodd;fill-rule:nonzero;stroke-linecap:round;stroke-linejoin:round"
   inkscape:label="Foreground">
<path
   d="m 7.45441,8.93815 3.50889,2.17465 v 0 L 9.71707,7.08497 v 0 z"
   fill="#ffff00"
   fill-rule="nonzero"
   opacity="1"
   stroke="#000000"
   stroke-linecap="butt"
   stroke-linejoin="round"
   stroke-width="0"
   id="path4" />
<path
   d="m 2.25174,6.45121 c 0,-1.94688 1.95682,-3.52514 4.37067,-3.52514 2.41384,0 4.37069,1.57826 4.37069,3.52514 0,1.94689 -1.95685,3.52515 -4.37069,3.52515 -2.41385,0 -4.37067,-1.57826 -4.37067,-3.52515 z"
   fill="#ffff00"
   fill-rule="nonzero"
   opacity="1"
   stroke="#000000"
   stroke-linecap="butt"
   stroke-linejoin="round"
   stroke-width="0"
   id="path5" />
</g>
</svg>
